<?xml version="1.0" encoding="UTF-8"?>
<svg version="1.1" xmlns="http://www.w3.org/2000/svg" width="190" height="190">
<path d="M0 0 C62.7 0 125.4 0 190 0 C190 62.7 190 125.4 190 190 C127.3 190 64.6 190 0 190 C0 127.3 0 64.6 0 0 Z " fill="#FCFCFC" transform="translate(0,0)"/>
<path d="M0 0 C10.5168643 6.32508921 16.84875455 15.27943801 20.25 26.9375 C22.56602143 37.47435425 20.50870154 46.89337777 15.25 56.1875 C9.6973063 64.86273539 2.2118248 71.58537902 -7.8972168 74.55786133 C-19.24176542 76.94320645 -31.31142928 75.77708989 -41.125 69.6796875 C-50.31945636 63.30625752 -56.55164467 54.97451197 -59 44 C-59.96326407 30.23908469 -59.00464758 19.60994232 -49.8125 8.625 C-36.96898546 -4.6894434 -16.6782938 -9.04109529 0 0 Z " fill="#FBFBFB" transform="translate(114,41)"/>
<path d="M0 0 C1.64574566 -0.02688151 3.29161413 -0.04634123 4.9375 -0.0625 C6.31228516 -0.07990234 6.31228516 -0.07990234 7.71484375 -0.09765625 C10 0 10 0 11 1 C11.07226502 2.85287502 11.0838122 4.70833878 11.0625 6.5625 C11.05347656 7.57441406 11.04445312 8.58632813 11.03515625 9.62890625 C11.02355469 10.41136719 11.01195312 11.19382812 11 12 C10.01 12 9.02 12 8 12 C7.34 11.01 6.68 10.02 6 9 C2.85012694 12.12095065 -0.29420133 15.24742906 -3.4375 18.375 C-4.33533203 19.26445313 -5.23316406 20.15390625 -6.15820312 21.0703125 C-7.01220703 21.92109375 -7.86621094 22.771875 -8.74609375 23.6484375 C-9.53685303 24.43395996 -10.3276123 25.21948242 -11.14233398 26.02880859 C-13.05371018 27.86744302 -13.05371018 27.86744302 -14 30 C-9.05981524 30.45883018 -9.05981524 30.45883018 -4.75 28.375 C-2.86545536 25.96518655 -2.86545536 25.96518655 -1.4375 22.8125 C0 20 0 20 3 19 C4.5625 20.125 4.5625 20.125 6 22 C6 27.36744144 3.65037321 31.24998881 0 35 C-4.07141059 38.10456145 -7.63107264 39.32964157 -12.75 38.875 C-15.8508128 38.41768588 -18.25005434 37.49884425 -21 36 C-21.9075 36.825 -22.815 37.65 -23.75 38.5 C-26.53624497 41.03294997 -26.87258261 41 -31 41 C-29.47291037 37.56404834 -27.40072955 34.88087546 -25 32 C-28.71045247 33.57780923 -31.29906384 35.90703248 -34.25 38.625 C-35.14203125 39.44226563 -36.0340625 40.25953125 -36.953125 41.1015625 C-37.62859375 41.72804687 -38.3040625 42.35453125 -39 43 C-39.99 42.67 -40.98 42.34 -42 42 C-40.01286647 37.02642301 -35.90616922 34.05215593 -32.01953125 30.53515625 C-29.70448477 28.20679101 -29.70448477 28.20679101 -30.14453125 25.453125 C-30.42683594 24.64359375 -30.70914063 23.8340625 -31 23 C-32.15216331 17.90670666 -32.63740242 14.31452406 -29.875 9.6875 C-27.18154059 5.92115842 -24.16835653 3.08417827 -20 1 C-17 0.8125 -17 0.8125 -14 1 C-12 3 -12 3 -11.875 5.4375 C-13 8 -13 8 -14.78515625 8.88671875 C-16.20665055 9.37430935 -17.64251613 9.82204625 -19.08984375 10.2265625 C-21.36647625 10.93975096 -21.36647625 10.93975096 -23 14 C-23.16713569 16.62531524 -23.16713569 16.62531524 -23 19 C-20.90112094 19.22355055 -20.90112094 19.22355055 -19.45947266 17.60717773 C-18.8669873 16.97239502 -18.27450195 16.3376123 -17.6640625 15.68359375 C-17.01179688 15.00232422 -16.35953125 14.32105469 -15.6875 13.61914062 C-14.31422505 12.16653824 -12.94699834 10.70819362 -11.5859375 9.24414062 C-10.93109375 8.56416016 -10.27625 7.88417969 -9.6015625 7.18359375 C-9.00682129 6.54993896 -8.41208008 5.91628418 -7.79931641 5.26342773 C-6 4 -6 4 -3.77490234 4.30102539 C-3.18918457 4.53168701 -2.6034668 4.76234863 -2 5 C-3.39347376 8.15204981 -5.02485079 10.26171773 -7.4765625 12.671875 C-8.146875 13.33574219 -8.8171875 13.99960938 -9.5078125 14.68359375 C-10.20648438 15.36550781 -10.90515625 16.04742187 -11.625 16.75 C-12.33140625 17.44738281 -13.0378125 18.14476563 -13.765625 18.86328125 C-15.50598703 20.58012488 -17.25084981 22.29211832 -19 24 C-15.93047104 24.32083813 -15.93047104 24.32083813 -13.9152832 22.25585938 C-13.13499756 21.45986328 -12.35471191 20.66386719 -11.55078125 19.84375 C-10.27944336 18.55791016 -10.27944336 18.55791016 -8.98242188 17.24609375 C-8.10134766 16.33988281 -7.22027344 15.43367188 -6.3125 14.5 C-4.97348633 13.14068359 -4.97348633 13.14068359 -3.60742188 11.75390625 C-1.39810749 9.50914832 0.80392533 7.25770002 3 5 C1.68 4.34 0.36 3.68 -1 3 C-0.67 2.01 -0.34 1.02 0 0 Z " fill="#090909" transform="translate(110,55)"/>
<path d="M0 0 C9.07194883 5.80379335 16.53281433 14.32979849 19.53271484 24.87207031 C22.03818258 36.28150438 20.62215215 49.62057393 14.421875 59.51953125 C7.25819563 69.24858229 -1.24862158 75.15594858 -13 78 C-26.13037355 79.52475722 -36.89239163 77.54452304 -47.8125 69.8125 C-55.31268896 63.53516794 -62.14412993 54.00763337 -63.20703125 44.06298828 C-64.09922695 30.21802285 -61.80691136 19.10003168 -53 8 C-39.05249242 -6.18881394 -17.46006481 -10.47603889 0 0 Z M-53 11 C-60.83448807 21.79273876 -62.17758729 32.00238027 -61 45 C-58.7267085 56.04354678 -51.9364357 64.40645006 -43 71 C-32.79869939 77.12078037 -20.35590627 77.78982081 -8.80859375 75.31640625 C2.07665765 71.2110141 11.41751038 62.59238054 16.22265625 51.9921875 C20.6783934 40.57296165 19.55726314 30.30087682 15 19 C9.95167522 8.99541715 1.61006587 1.59078711 -9 -2 C-25.67491108 -6.65773602 -41.59487056 -1.82569717 -53 11 Z " fill="#171717" transform="translate(116,40)"/>
<path d="M0 0 C0.33 0 0.66 0 1 0 C1.02578125 0.81082031 1.0515625 1.62164062 1.078125 2.45703125 C1.76314109 15.83041357 5.38191861 26.12192337 15.375 35.25 C22.43870651 40.9980716 29.2801391 42.98112013 38.25 43.5625 C39.51328125 43.64628906 40.7765625 43.73007813 42.078125 43.81640625 C43.52445313 43.90728516 43.52445313 43.90728516 45 44 C45 44.33 45 44.66 45 45 C32.69241762 46.83885476 24.33426484 45.02835811 14.1875 37.8125 C7.08173504 31.86528368 0.89342314 23.18566091 -1 14 C-1.01971974 9.27712136 -0.62028864 4.67913388 0 0 Z " fill="#252525" transform="translate(54,72)"/>
<path d="M0 0 C0.99 0.33 1.98 0.66 3 1 C2.03900391 1.61875 2.03900391 1.61875 1.05859375 2.25 C-9.19231493 9.09412383 -15.3936705 16.02585909 -19 28 C-19.89818906 32.64999963 -20.5330015 37.28819426 -21 42 C-21.33 42 -21.66 42 -22 42 C-22.60040239 29.05799296 -20.24411865 19.25934765 -12 9 C-8.33568867 5.5770505 -4.50794097 2.25397048 0 0 Z " fill="#101010" transform="translate(75,39)"/>
<path d="M0 0 C1.22976562 -0.00483398 1.22976562 -0.00483398 2.484375 -0.00976562 C7.1648992 0.03162165 10.9771107 0.52630224 15.375 2.3125 C15.375 2.9725 15.375 3.6325 15.375 4.3125 C14.405625 4.15136719 13.43625 3.99023438 12.4375 3.82421875 C8.07833701 3.20477029 3.77227477 3.12868899 -0.625 3.125 C-1.77742188 3.10663086 -1.77742188 3.10663086 -2.953125 3.08789062 C-7.89450405 3.07528507 -11.93852151 3.73579912 -16.625 5.3125 C-16.955 4.6525 -17.285 3.9925 -17.625 3.3125 C-11.51661728 0.6514919 -6.62953816 -0.13153846 0 0 Z " fill="#161616" transform="translate(94.625,34.6875)"/>
<path d="M0 0 C0.66 0.66 1.32 1.32 2 2 C0.31768531 2.967407 -1.37115197 3.92347446 -3.0625 4.875 C-4.00222656 5.40867187 -4.94195312 5.94234375 -5.91015625 6.4921875 C-11.97153958 9.45008126 -17.22401417 10.24382276 -23.9375 10.125 C-24.62134766 10.11597656 -25.30519531 10.10695313 -26.00976562 10.09765625 C-27.67333287 10.07438958 -29.33671631 10.03853167 -31 10 C-31 9.67 -31 9.34 -31 9 C-29.96101563 8.90203125 -28.92203125 8.8040625 -27.8515625 8.703125 C-17.58930523 7.64006798 -8.75620211 5.83746807 0 0 Z " fill="#151515" transform="translate(119,108)"/>
<path d="M0 0 C1.65 0 3.3 0 5 0 C5.66 1.32 6.32 2.64 7 4 C5.8125 6 5.8125 6 4 8 C1.3125 8.25 1.3125 8.25 -1 8 C-0.67 5.36 -0.34 2.72 0 0 Z " fill="#8F8F8F" transform="translate(132,130)"/>
<path d="M0 0 C1.66611905 -0.042721 3.33382885 -0.04063832 5 0 C6 1 6 1 6.25 3.4375 C6.1675 4.283125 6.085 5.12875 6 6 C3 8 3 8 -1 8 C-0.67 5.36 -0.34 2.72 0 0 Z " fill="#8A8A8A" transform="translate(92,130)"/>
<path d="M0 0 C4.95 0 9.9 0 15 0 C14.67 1.32 14.34 2.64 14 4 C9.33333333 4 4.66666667 4 0 4 C0.66 3.67 1.32 3.34 2 3 C1.34 2.67 0.68 2.34 0 2 C0 1.34 0 0.68 0 0 Z " fill="#595959" transform="translate(89,146)"/>
<path d="M0 0 C2.31 0 4.62 0 7 0 C7.33 0.99 7.66 1.98 8 3 C8.33 2.01 8.66 1.02 9 0 C9.99 0.33 10.98 0.66 12 1 C11.67 1.99 11.34 2.98 11 4 C7.7 4 4.4 4 1 4 C0.67 2.68 0.34 1.36 0 0 Z " fill="#6F6F6F" transform="translate(68,146)"/>
<path d="M0 0 C0 0.66 0 1.32 0 2 C-6.6 1.34 -13.2 0.68 -20 0 C-20 -0.33 -20 -0.66 -20 -1 C-12.9874578 -2.05512788 -6.83148335 -2.27716112 0 0 Z " fill="#3B3B3B" transform="translate(110,37)"/>
<path d="M0 0 C-0.33 1.98 -0.66 3.96 -1 6 C-4 6 -4 6 -5.6875 4.5 C-6.120625 4.005 -6.55375 3.51 -7 3 C-7.33 3.99 -7.66 4.98 -8 6 C-8 4.35 -8 2.7 -8 1 C-5.07175348 0.02391783 -3.04386724 -0.08226668 0 0 Z " fill="#656565" transform="translate(130,144)"/>
<path d="M0 0 C0.66 0 1.32 0 2 0 C2.33 2.64 2.66 5.28 3 8 C2.67 7.34 2.34 6.68 2 6 C0.68 6 -0.64 6 -2 6 C-2 6.66 -2 7.32 -2 8 C-2.66 7.67 -3.32 7.34 -4 7 C-2.68 4.69 -1.36 2.38 0 0 Z " fill="#555555" transform="translate(102,130)"/>
<path d="M0 0 C0.66 0 1.32 0 2 0 C2.33 2.64 2.66 5.28 3 8 C2.67 7.34 2.34 6.68 2 6 C0.68 6 -0.64 6 -2 6 C-2 6.66 -2 7.32 -2 8 C-2.66 7.67 -3.32 7.34 -4 7 C-2.68 4.69 -1.36 2.38 0 0 Z " fill="#555555" transform="translate(112,130)"/>
<path d="M0 0 C0.66 0 1.32 0 2 0 C2.33 2.64 2.66 5.28 3 8 C2.67 7.34 2.34 6.68 2 6 C0.68 6 -0.64 6 -2 6 C-2 6.66 -2 7.32 -2 8 C-2.66 7.67 -3.32 7.34 -4 7 C-2.68 4.69 -1.36 2.38 0 0 Z " fill="#575757" transform="translate(78,130)"/>
<path d="M0 0 C0.33 0 0.66 0 1 0 C1.33 5.61 1.66 11.22 2 17 C1.34 17 0.68 17 0 17 C-0.97040422 11.06975197 -0.89316269 5.93609666 0 0 Z " fill="#3D3D3D" transform="translate(54,72)"/>
<path d="M0 0 C0.66 0 1.32 0 2 0 C2.66 2.31 3.32 4.62 4 7 C2.35 7.33 0.7 7.66 -1 8 C-0.67 5.36 -0.34 2.72 0 0 Z " fill="#5C5C5C" transform="translate(147,130)"/>
<path d="M0 0 C0.66 0 1.32 0 2 0 C2.33 2.64 2.66 5.28 3 8 C2.67 7.34 2.34 6.68 2 6 C0.68 6 -0.64 6 -2 6 C-2 6.66 -2 7.32 -2 8 C-2.66 7.67 -3.32 7.34 -4 7 C-2.68 4.69 -1.36 2.38 0 0 Z " fill="#4E4E4E" transform="translate(59,130)"/>
<path d="M0 0 C0.66 0 1.32 0 2 0 C3.59138085 4.17737474 4.21278058 7.53160785 4 12 C3.34 11.67 2.68 11.34 2 11 C1.3671875 8.49609375 1.3671875 8.49609375 0.875 5.4375 C0.70742187 4.42558594 0.53984375 3.41367188 0.3671875 2.37109375 C0.24601563 1.58863281 0.12484375 0.80617187 0 0 Z " fill="#272727" transform="translate(132,61)"/>
<path d="M0 0 C0.66 0 1.32 0 2 0 C2 1.98 2 3.96 2 6 C0.68 6 -0.64 6 -2 6 C-2 6.66 -2 7.32 -2 8 C-2.66 7.67 -3.32 7.34 -4 7 C-2.68 4.69 -1.36 2.38 0 0 Z " fill="#555555" transform="translate(127,130)"/>
<path d="M0 0 C0.66 0 1.32 0 2 0 C2.33 2.64 2.66 5.28 3 8 C2.67 7.34 2.34 6.68 2 6 C0.68 6 -0.64 6 -2 6 C-1.34 4.02 -0.68 2.04 0 0 Z " fill="#515151" transform="translate(37,130)"/>
<path d="M0 0 C0.33 0.66 0.66 1.32 1 2 C2.32 2 3.64 2 5 2 C5 3.32 5 4.64 5 6 C4.34 5.67 3.68 5.34 3 5 C3.33 4.34 3.66 3.68 4 3 C3.34 3 2.68 3 2 3 C1.67 3.99 1.34 4.98 1 6 C0.34 6 -0.32 6 -1 6 C-1 5.01 -1 4.02 -1 3 C-1.99 2.67 -2.98 2.34 -4 2 C-2.68 2 -1.36 2 0 2 C0 1.34 0 0.68 0 0 Z " fill="#686868" transform="translate(58,144)"/>
<path d="M0 0 C2.95409701 1.37154504 5.44008376 2.98863724 8 5 C7.67 5.99 7.34 6.98 7 8 C5.8274869 7.04882866 4.66212985 6.08882991 3.5 5.125 C2.8503125 4.59132813 2.200625 4.05765625 1.53125 3.5078125 C1.0259375 3.01023437 0.520625 2.51265625 0 2 C0 1.34 0 0.68 0 0 Z " fill="#1B1B1B" transform="translate(64,104)"/>
</svg>
